<?xml version="1.0" encoding="UTF-8"?>
<svg id="Layer_1" data-name="Layer 1" xmlns="http://www.w3.org/2000/svg" viewBox="0 0 184.96 50.58">
  <defs>
    <style>
      .cls-1, .cls-2, .cls-3 {
        stroke-width: 0px;
      }

      .cls-2 {
        fill: #ff385c;
      }

      .cls-3 {
        fill: #fff;
      }
    </style>
  </defs>
  <circle class="cls-2" cx="166.87" cy="23.73" r="14.64"/>
  <circle class="cls-3" cx="166.87" cy="23.73" r="8.85"/>
  <rect class="cls-2" x="165.56" y="30.63" width="21.5" height="5.35" rx="2.03" ry="2.03" transform="translate(75.19 -114.92) rotate(45)"/>
  <path class="cls-2" d="M175.91,0h5.52v20.67c0,2.31-1.87,4.18-4.18,4.18h-1.34V0h0Z"/>
  <circle class="cls-1" cx="165.28" cy="22.85" r="2.62"/>
  <g>
    <path class="cls-1" d="M4.63,31.61c-1.48-.79-2.62-1.89-3.42-3.3-.81-1.41-1.21-3.08-1.21-5.01s.4-3.63,1.21-5.04c.8-1.41,1.94-2.51,3.42-3.28,1.48-.78,3.22-1.17,5.22-1.17s3.71.36,5.12,1.09c1.41.73,2.49,1.78,3.22,3.17.74,1.38,1.11,3.05,1.11,5,0,.24,0,.49-.02.75-.01.26-.03.47-.06.63H2.93v-3.17h11.83l-1.38,1.82c.1-.16.2-.38.3-.65.09-.28.14-.51.14-.69,0-.9-.17-1.66-.49-2.29-.33-.63-.8-1.13-1.4-1.5-.61-.37-1.32-.55-2.14-.55-1,0-1.84.22-2.51.65-.67.44-1.19,1.08-1.54,1.94-.36.86-.55,1.92-.57,3.19,0,1.21.18,2.24.53,3.09.36.84.89,1.49,1.6,1.94.71.45,1.57.67,2.57.67,1.13,0,2.1-.22,2.91-.65.8-.44,1.47-1.09,2-1.96l4.47,1.38c-.95,1.71-2.21,3-3.78,3.86-1.57.86-3.45,1.29-5.64,1.29-1.98,0-3.71-.4-5.18-1.19Z"/>
    <path class="cls-1" d="M27.22,28.11c.26.38.63.67,1.09.87.46.2.97.3,1.52.3.79,0,1.5-.16,2.14-.49.63-.33,1.15-.8,1.54-1.42.4-.62.59-1.37.59-2.24l.63,2.37c0,1.16-.32,2.14-.97,2.93-.65.79-1.48,1.38-2.49,1.78-1.02.4-2.08.59-3.19.59s-2.19-.22-3.17-.67c-.98-.45-1.76-1.1-2.35-1.96-.59-.86-.89-1.91-.89-3.15,0-1.77.62-3.17,1.86-4.19s2.99-1.54,5.26-1.54c1.16,0,2.18.12,3.07.36.88.24,1.63.53,2.24.87.61.34,1.04.67,1.31.99v2.37c-.71-.53-1.51-.92-2.39-1.19-.88-.26-1.81-.4-2.79-.4-.79,0-1.44.1-1.94.3-.5.2-.87.47-1.11.83-.24.36-.36.8-.36,1.33s.13.98.4,1.37ZM22.95,15.86c.95-.5,2.11-.98,3.48-1.44,1.37-.46,2.9-.69,4.59-.69,1.56,0,2.94.22,4.15.67,1.21.45,2.16,1.1,2.85,1.96.69.86,1.03,1.91,1.03,3.15v12.9h-4.95v-11.83c0-.5-.08-.93-.24-1.29-.16-.36-.4-.65-.73-.89-.33-.24-.72-.41-1.17-.51-.45-.1-.95-.16-1.5-.16-.84,0-1.65.09-2.41.28-.77.19-1.42.41-1.98.67-.55.26-.96.49-1.23.67l-1.9-3.48Z"/>
    <path class="cls-1" d="M43.4,18.87v-4.67h17.17l-9.77,13.53h8.63v4.67h-17.57l10.09-13.53h-8.55Z"/>
    <path class="cls-1" d="M64.49,18.87v-4.67h17.17l-9.77,13.53h8.63v4.67h-17.57l10.09-13.53h-8.55Z"/>
    <path class="cls-1" d="M90.84,41.11h-5.26l4.59-10.53-7.56-16.38h5.7l5.86,14.48-2.53-.08,5.74-14.4h5.34l-11.87,26.91Z"/>
    <path class="cls-1" d="M114.86,14.2v4.31h-11.4v-4.31h11.4ZM113.42,5.87c-.33-.15-.65-.22-.97-.22-.4,0-.73.1-1.01.3s-.5.52-.65.97c-.16.45-.24,1.02-.24,1.7v23.78h-4.95V7.48c0-1.4.24-2.57.71-3.52.47-.95,1.19-1.68,2.14-2.2.95-.51,2.11-.77,3.48-.77.82,0,1.52.1,2.1.3.58.2,1.07.44,1.48.73.41.29.73.57.97.83l-2.18,3.84c-.26-.4-.56-.67-.89-.81Z"/>
    <path class="cls-1" d="M118.58,5.08c.61-.54,1.33-.81,2.18-.81s1.56.27,2.16.81c.59.54.89,1.23.89,2.08s-.3,1.5-.89,2.06c-.59.55-1.31.83-2.16.83s-1.57-.28-2.18-.83c-.61-.55-.91-1.24-.91-2.06s.3-1.54.91-2.08ZM123.21,14.2v18.2h-4.99V14.2h4.99Z"/>
    <path class="cls-1" d="M139.67,18.55c-.47-.63-1.24-.95-2.29-.95-.71,0-1.34.15-1.9.46-.55.3-.98.73-1.27,1.29-.29.55-.44,1.21-.44,1.98v11.08h-5.14V14.2h5.14v2.77c.55-1.03,1.29-1.81,2.2-2.35.91-.54,2.01-.81,3.3-.81,2.16,0,3.77.61,4.83,1.84,1.05,1.23,1.58,2.93,1.58,5.12v11.63h-5.3v-11.08c0-1.21-.24-2.14-.71-2.77Z"/>
  </g>
  <path class="cls-2" d="M177.49,26.56c-1.04,0-1.95.55-2.3,1.37-4.6,10.74-17.66,18.51-33.02,18.51-10.78,0-20.42-3.83-26.81-9.82-.42-.4-.98-.63-1.56-.63h0c-2.08,0-3.03,2.56-1.48,3.94,7.28,6.52,17.96,10.65,29.85,10.65,17.48,0,32.34-8.91,37.63-21.24.58-1.35-.6-2.78-2.3-2.78Z"/>
</svg>